<svg xmlns="http://www.w3.org/2000/svg" width="560" height="120" viewBox="0 0 560 120" role="img" aria-label="Zabka barcode">
  <rect width="560" height="120" fill="#ffffff"/>
  <g fill="#111111">
    <rect x="20" y="14" width="4" height="74"/>
    <rect x="28" y="14" width="2" height="74"/>
    <rect x="34" y="14" width="6" height="74"/>
    <rect x="44" y="14" width="2" height="74"/>
    <rect x="50" y="14" width="4" height="74"/>
    <rect x="58" y="14" width="8" height="74"/>
    <rect x="70" y="14" width="2" height="74"/>
    <rect x="76" y="14" width="6" height="74"/>
    <rect x="86" y="14" width="3" height="74"/>
    <rect x="93" y="14" width="7" height="74"/>
    <rect x="104" y="14" width="2" height="74"/>
    <rect x="110" y="14" width="4" height="74"/>
    <rect x="118" y="14" width="8" height="74"/>
    <rect x="130" y="14" width="3" height="74"/>
    <rect x="137" y="14" width="5" height="74"/>
    <rect x="146" y="14" width="2" height="74"/>
    <rect x="152" y="14" width="7" height="74"/>
    <rect x="163" y="14" width="4" height="74"/>
    <rect x="171" y="14" width="2" height="74"/>
    <rect x="177" y="14" width="6" height="74"/>
    <rect x="187" y="14" width="3" height="74"/>
    <rect x="194" y="14" width="7" height="74"/>
    <rect x="205" y="14" width="2" height="74"/>
    <rect x="211" y="14" width="5" height="74"/>
    <rect x="220" y="14" width="8" height="74"/>
    <rect x="232" y="14" width="2" height="74"/>
    <rect x="238" y="14" width="6" height="74"/>
    <rect x="248" y="14" width="3" height="74"/>
    <rect x="255" y="14" width="7" height="74"/>
    <rect x="266" y="14" width="2" height="74"/>
    <rect x="272" y="14" width="4" height="74"/>
    <rect x="280" y="14" width="8" height="74"/>
    <rect x="292" y="14" width="2" height="74"/>
    <rect x="298" y="14" width="6" height="74"/>
    <rect x="308" y="14" width="3" height="74"/>
    <rect x="315" y="14" width="7" height="74"/>
    <rect x="326" y="14" width="2" height="74"/>
    <rect x="332" y="14" width="5" height="74"/>
    <rect x="341" y="14" width="8" height="74"/>
    <rect x="353" y="14" width="3" height="74"/>
    <rect x="360" y="14" width="5" height="74"/>
    <rect x="369" y="14" width="2" height="74"/>
    <rect x="375" y="14" width="7" height="74"/>
    <rect x="386" y="14" width="4" height="74"/>
    <rect x="394" y="14" width="2" height="74"/>
    <rect x="400" y="14" width="6" height="74"/>
    <rect x="410" y="14" width="3" height="74"/>
    <rect x="417" y="14" width="7" height="74"/>
    <rect x="428" y="14" width="2" height="74"/>
    <rect x="434" y="14" width="5" height="74"/>
    <rect x="443" y="14" width="8" height="74"/>
    <rect x="455" y="14" width="2" height="74"/>
    <rect x="461" y="14" width="6" height="74"/>
    <rect x="471" y="14" width="3" height="74"/>
    <rect x="478" y="14" width="7" height="74"/>
    <rect x="489" y="14" width="2" height="74"/>
    <rect x="495" y="14" width="4" height="74"/>
    <rect x="503" y="14" width="8" height="74"/>
    <rect x="515" y="14" width="3" height="74"/>
    <rect x="522" y="14" width="5" height="74"/>
    <rect x="531" y="14" width="2" height="74"/>
  </g>
  <text x="280" y="106" text-anchor="middle" font-family="monospace" font-size="18" fill="#111111">5901234123457</text>
</svg>
