<svg xmlns="http://www.w3.org/2000/svg" width="560" height="120" viewBox="0 0 560 120" role="img" aria-label="Zabka barcode">
  <rect width="560" height="120" fill="#ffffff"/>
  <g fill="#0d0d0d">
    <rect x="0" y="0" width="4" height="120"/>
    <rect x="8" y="0" width="2" height="120"/>
    <rect x="14" y="0" width="5" height="120"/>
    <rect x="23" y="0" width="2" height="120"/>
    <rect x="29" y="0" width="3" height="120"/>
    <rect x="36" y="0" width="7" height="120"/>
    <rect x="47" y="0" width="2" height="120"/>
    <rect x="53" y="0" width="6" height="120"/>
    <rect x="63" y="0" width="3" height="120"/>
    <rect x="70" y="0" width="8" height="120"/>
    <rect x="82" y="0" width="2" height="120"/>
    <rect x="88" y="0" width="4" height="120"/>
    <rect x="96" y="0" width="7" height="120"/>
    <rect x="107" y="0" width="3" height="120"/>
    <rect x="114" y="0" width="5" height="120"/>
    <rect x="123" y="0" width="2" height="120"/>
    <rect x="129" y="0" width="8" height="120"/>
    <rect x="141" y="0" width="3" height="120"/>
    <rect x="148" y="0" width="6" height="120"/>
    <rect x="158" y="0" width="2" height="120"/>
    <rect x="164" y="0" width="4" height="120"/>
    <rect x="172" y="0" width="7" height="120"/>
    <rect x="183" y="0" width="3" height="120"/>
    <rect x="190" y="0" width="8" height="120"/>
    <rect x="202" y="0" width="2" height="120"/>
    <rect x="208" y="0" width="5" height="120"/>
    <rect x="217" y="0" width="6" height="120"/>
    <rect x="227" y="0" width="3" height="120"/>
    <rect x="234" y="0" width="7" height="120"/>
    <rect x="245" y="0" width="2" height="120"/>
    <rect x="251" y="0" width="4" height="120"/>
    <rect x="259" y="0" width="8" height="120"/>
    <rect x="271" y="0" width="3" height="120"/>
    <rect x="278" y="0" width="5" height="120"/>
    <rect x="287" y="0" width="2" height="120"/>
    <rect x="293" y="0" width="7" height="120"/>
    <rect x="304" y="0" width="3" height="120"/>
    <rect x="311" y="0" width="8" height="120"/>
    <rect x="323" y="0" width="2" height="120"/>
    <rect x="329" y="0" width="4" height="120"/>
    <rect x="337" y="0" width="6" height="120"/>
    <rect x="347" y="0" width="3" height="120"/>
    <rect x="354" y="0" width="7" height="120"/>
    <rect x="365" y="0" width="2" height="120"/>
    <rect x="371" y="0" width="5" height="120"/>
    <rect x="380" y="0" width="8" height="120"/>
    <rect x="392" y="0" width="3" height="120"/>
    <rect x="399" y="0" width="6" height="120"/>
    <rect x="409" y="0" width="2" height="120"/>
    <rect x="415" y="0" width="4" height="120"/>
    <rect x="423" y="0" width="7" height="120"/>
    <rect x="434" y="0" width="3" height="120"/>
    <rect x="441" y="0" width="8" height="120"/>
    <rect x="453" y="0" width="2" height="120"/>
    <rect x="459" y="0" width="5" height="120"/>
    <rect x="468" y="0" width="6" height="120"/>
    <rect x="478" y="0" width="3" height="120"/>
    <rect x="485" y="0" width="7" height="120"/>
    <rect x="496" y="0" width="2" height="120"/>
    <rect x="502" y="0" width="4" height="120"/>
    <rect x="510" y="0" width="8" height="120"/>
    <rect x="522" y="0" width="3" height="120"/>
    <rect x="529" y="0" width="6" height="120"/>
    <rect x="539" y="0" width="2" height="120"/>
    <rect x="545" y="0" width="5" height="120"/>
    <rect x="554" y="0" width="6" height="120"/>
  </g>
</svg>
